<svg width="19" height="23" viewBox="0 0 19 23" fill="none" xmlns="http://www.w3.org/2000/svg">
<path d="M19 13.5713C19 18.7786 14.7467 23 9.5 23C4.25329 23 0 18.7786 0 13.5713C0 8.60669 5.61284 1.75289 9.22328 0.103476C9.55028 -0.0459154 9.92015 -0.0321868 10.2382 0.135849C13.7156 1.97298 19 8.60886 19 13.5713Z" fill="url(#paint0_linear_1_219)"/>
<path d="M10.26 8.36983C10.26 7.73193 9.74961 7.21481 9.12 7.21481C8.4904 7.21481 7.98 7.73193 7.98 8.36983V14.5074C7.97816 14.5996 7.98723 14.6928 8.00787 14.7848C8.03969 14.928 8.09774 15.061 8.17663 15.1786C8.26696 15.3138 8.38223 15.4246 8.51288 15.5077C8.65228 15.5967 8.81206 15.656 8.98352 15.6767C9.11355 15.6927 9.24719 15.6862 9.37854 15.6551C9.47437 15.6326 9.56556 15.5978 9.65043 15.5525L14.1898 13.2529C14.753 12.9677 14.9812 12.2739 14.6997 11.7033C14.4181 11.1328 13.7333 10.9015 13.1702 11.1868L10.26 12.661V8.36983Z" fill="#114356"/>
<defs>
<linearGradient id="paint0_linear_1_219" x1="9.5" y1="0" x2="9.5" y2="23" gradientUnits="userSpaceOnUse">
<stop stop-color="#67FEFE"/>
<stop offset="1" stop-color="#22B2E6"/>
</linearGradient>
</defs>
</svg>
